<?xml version="1.0" encoding="utf-8"?>
<!-- Generator: Adobe Illustrator 27.3.1, SVG Export Plug-In . SVG Version: 6.00 Build 0)  -->
<svg version="1.1" id="Layer_1" xmlns="http://www.w3.org/2000/svg" xmlns:xlink="http://www.w3.org/1999/xlink" x="0px" y="0px"
	 viewBox="390 170 370 200" xml:space="preserve">
<style type="text/css">
	.st0{fill:#2B79C3;}
</style>
<g>
	<path class="st0" d="M513.21,210.67c-0.79-2.9-1.86-5.58-3.23-8.04c-0.53-0.99-1.12-1.94-1.76-2.85c-1.49-2.16-3.26-4.13-5.29-5.89
		c-0.97-0.88-2.01-1.69-3.11-2.46c-3.38-2.37-7.18-4.11-11.38-5.22c-4.2-1.11-10.66-1.66-19.39-1.66c-6.06,0-13.45,0.15-22.17,0.44
		c-8.73,0.29-15.6,0.44-20.62,0.44c-5.21,0-17.35,0.66-25.95,0.46c0.07,6.39,0,9.64,0,12.43c0,3.72,0.07,7.27,0,10.98v34.98v48.94
		v25.25c10.91,0.1,17.35,0,20.08,0h21.15V305.7c0-5.6,0-22.51,0-50.34c0-15.37-0.11-29.36,0-42.02l9.66-0.47
		c2.54-0.13,4.98-0.2,7.32-0.2c2.41,0,4.56,0.17,6.45,0.49c1.88,0.33,3.61,1.04,5.17,2.15s2.7,2.52,3.42,4.25
		c0.72,1.72,1.07,3.69,1.07,5.91c0,4.55-1.61,8.41-4.83,11.57c-3.22,3.16-8.12,4.49-14.7,4.74c-3.14,0.12-3.35,0.17-6.55-0.02
		c0,2.89,0.04,6.29,0,12.19c-0.04,6.3,0.05,10.63,0,14.69c4.63,0.78,12.71-0.01,16.22-0.01c9.57,0,18.2-1.79,25.88-5.37
		c3.74-1.74,7.08-3.93,10-6.54c2.98-2.65,5.53-5.76,7.66-9.32c0.07-0.11,0.14-0.23,0.21-0.35c4.23-7.23,6.35-15.2,6.35-23.93
		C514.87,218.89,514.31,214.74,513.21,210.67z"/>
	<path class="st0" d="M666.59,318.5c0-31.29-0.23-65.39,0.42-103.41l-41.28,0v-10.89c0-5.79,0-12.04,0-18.99
		c18.48,0.13,41.1,0.2,65.7,0.2l24.11-0.1h23.43l12.69-0.1v9.46c-0.26,5.13,0.1,9.2,0,12.55s0,6.04,0,7.74
		c-14,0.11-26.74,0.13-35.78,0.13l-5.53,0c-0.31,11.47,0.16,21.19,0,31.02c-0.23,13.99,0.12,26.85,0,40.09
		c-0.12,13.16,0,24.19,0,32.31c-10.67-0.13-23.25,0-26.37,0C681.19,318.5,678.76,318.37,666.59,318.5z"/>
	<path class="st0" d="M613.15,185.44h-0.08c-2.28,0.02-4.61,0.03-6.99,0.05c-2.36,0.01-4.76,0.02-7.21,0.03
		c-10.22,0.05-21.27,0.07-33.14,0.07c-21.81,0-41.9-0.06-57.26-0.2v5.12c0.6,0.21,1.62,0.59,1.92,0.85c1.45,1.25,2.62,3.02,3.7,4.58
		c2.67,3.85,4.69,8.26,6.01,13.1c1.27,4.67,1.92,9.49,1.92,14.34c0,9.98-2.47,19.26-7.34,27.57c-2,3.42-3.51,6.37-6.21,9.1
		c0,6.12,0,11.73,0,16.52c0,11.06,0,25.19,0,41.93h8.58h42.91c18.94,0,42.67,0,58.56,0c0.19-10.38-0.23-20.28,0-29.93
		c-7.23-0.07-14.65,0.17-19.37,0.17l-20.17,0c-10.33,0-16.94,0-20.25,0h-11.54l1.11-22.75c11.01,0,21.15-0.04,30.13-0.04
		c6.05,0,15.1,0.12,26.3,0.12c0.2-11.57,0-20.62,0-29.04c-15.69,0-23.94,0-27.59,0c-10.22,0-19.17,0-26.88,0l1.27-21.96
		c7.09,0,12.25,0.04,15.53,0c3.29-0.03,9.45,0,18.83,0c3.63,0,8.08-0.09,12.45,0c2.3,0.05,5.07-0.08,7.57,0
		c3.9,0.12,8.24-0.01,12.6,0.04c0-2.33,0-4.98,0-7.28v-10.79c0.09-4.85-0.07-7.68,0-8.45v-3.11v-0.11
		C616.63,185.42,615.12,185.42,613.15,185.44z M513.16,210.93c-0.79-2.9-1.86-5.58-3.23-8.04c-0.17,6.84-0.5,16.33-0.98,28.45
		c-0.23,5.8-0.46,11.24-0.69,16.32c0.07-0.11,0.14-0.23,0.21-0.35c4.23-7.23,6.35-15.2,6.35-23.93
		C514.82,219.15,514.26,215,513.16,210.93z"/>
	<g>
		<g>
			<path d="M405.71,326.07c1.44-0.34,3.27-0.55,5.28-0.55c2.97,0,5.38,0.55,7.05,2.14c1.53,1.43,2.27,3.63,2.27,6.05
				c0,2.86-0.8,4.83-2.09,6.34c-1.67,1.98-4.41,2.92-6.79,2.92c-0.46,0-0.85,0-1.26-0.04v11.02h-4.46V326.07z M410.17,339.26
				c0.32,0.06,0.65,0.08,1.08,0.08c2.95,0,4.58-2.02,4.58-5.28c0-2.67-1.09-4.91-4.11-4.91c-0.62,0-1.17,0.08-1.56,0.21V339.26z"/>
			<path d="M426.97,344.94c0.05,4.57,2.17,5.81,4.56,5.81c1.49,0,2.76-0.34,3.67-0.73l0.64,3.23c-1.28,0.6-3.25,0.96-5.12,0.96
				c-5.27,0-8.1-3.82-8.1-10.15c0-6.77,3.24-10.88,7.61-10.88c4.3,0,6.47,3.89,6.47,9.37c0,1.17-0.05,1.86-0.12,2.4H426.97z
				 M432.53,341.75c0.04-3.28-1.04-5.23-2.63-5.23c-1.95,0-2.82,2.83-2.91,5.23H432.53z"/>
			<path d="M439.93,339.27c0-1.89-0.1-4.02-0.17-5.76h3.92l0.23,3.08h0.13c0.79-2.08,2.48-3.42,4.15-3.42
				c0.44,0,0.68,0.02,0.95,0.07v4.48c-0.28-0.05-0.57-0.05-0.96-0.05c-1.55,0-3.11,1.3-3.59,3.51c-0.11,0.49-0.19,1.18-0.19,1.96
				v10.81h-4.48V339.27z"/>
			<path d="M451.07,349.72c0.77,0.49,2.17,1.07,3.53,1.07c1.6,0,2.58-0.85,2.58-2.34c0-1.28-0.59-2.12-2.49-3.32
				c-3.04-1.81-4.15-3.78-4.15-5.86c0-3.52,2.57-6.11,6.25-6.11c1.66,0,2.94,0.47,3.92,1l-0.92,3.31c-0.78-0.49-1.7-0.87-2.8-0.87
				c-1.55,0-2.31,1.03-2.31,2.13c0,1.11,0.5,1.75,2.46,3c2.72,1.62,4.17,3.64,4.17,6.19c0,4.16-2.91,6.28-6.76,6.28
				c-1.61,0-3.47-0.46-4.38-1.18L451.07,349.72z"/>
			<path d="M478.21,343.69c0,8.25-4.25,10.61-7.36,10.61c-4.34,0-7.3-3.63-7.3-10.51c0-7.39,3.63-10.61,7.45-10.61
				C475.3,333.17,478.21,336.95,478.21,343.69z M468.03,343.71c0,3.44,0.58,7.12,2.97,7.12c2.23,0,2.74-4.04,2.74-7.12
				c0-2.97-0.51-7.08-2.83-7.08C468.52,336.63,468.03,340.75,468.03,343.71z"/>
			<path d="M481.57,339.27c0-2.31-0.1-3.95-0.17-5.76h3.89l0.23,2.41h0.08c0.97-1.64,2.69-2.74,4.83-2.74
				c3.41,0,5.22,2.65,5.22,7.39v13.4h-4.48v-12.97c0-2.04-0.43-4.04-2.39-4.04c-1.11,0-2.11,0.85-2.51,2.5
				c-0.13,0.45-0.23,1.11-0.23,1.86v12.65h-4.48V339.27z"/>
			<path d="M508.5,353.96l-0.26-2.08h-0.1c-1.02,1.58-2.54,2.42-4.33,2.42c-2.93,0-5.15-2.46-5.15-6.05c0-5.25,4.44-7.48,9.07-7.52
				v-0.54c0-2.13-0.83-3.63-3.06-3.63c-1.46,0-2.7,0.43-3.81,1.13l-0.86-3.06c1.01-0.64,3.16-1.46,5.65-1.46
				c5.26,0,6.61,3.6,6.61,7.96v8.17c0,1.59,0.05,3.3,0.26,4.66H508.5z M507.84,343.72c-1.75,0.02-4.91,0.51-4.91,4.07
				c0,2.31,1.23,3.14,2.22,3.14c1.12,0,2.21-0.76,2.58-2.34c0.08-0.32,0.11-0.69,0.11-1.04V343.72z"/>
			<path d="M516.43,324.89h4.48v29.07h-4.48V324.89z"/>
			<path d="M543.52,341.06h-6.74v9.01h7.64v3.89H532.3v-28.31h11.62v3.89h-7.14v7.77h6.74V341.06z"/>
			<path d="M550.9,333.51l1.53,3.98c0.45,1.21,0.82,2.41,1.17,3.49h0.08c0.35-1.14,0.75-2.37,1.14-3.49l1.49-3.98h4.53l-4.74,10.08
				l4.76,10.38h-4.87l-1.65-4.2c-0.41-1.04-0.76-2.09-1.15-3.29h-0.08c-0.34,1.13-0.74,2.22-1.12,3.31l-1.53,4.18h-4.51l4.69-10.21
				l-4.6-10.24H550.9z"/>
			<path d="M563.2,339.94c0-2.76-0.1-4.72-0.17-6.43h3.92l0.23,2.47h0.08c0.97-1.91,2.54-2.81,4.31-2.81
				c4.06,0,6.14,4.39,6.14,10.53c0,7.42-3.16,10.6-6.5,10.6c-1.77,0-2.89-1.11-3.46-2.16h-0.08v9.88h-4.46V339.94z M567.66,346.48
				c0,0.64,0.07,1.26,0.23,1.71c0.52,1.99,1.57,2.41,2.31,2.41c2.27,0,3.04-3.22,3.04-6.84c0-4.05-0.98-6.79-3.03-6.79
				c-1.13,0-2.15,1.26-2.36,2.62c-0.14,0.45-0.19,0.98-0.19,1.5V346.48z"/>
			<path d="M584.63,344.94c0.05,4.57,2.17,5.81,4.56,5.81c1.49,0,2.76-0.34,3.67-0.73l0.64,3.23c-1.28,0.6-3.25,0.96-5.12,0.96
				c-5.27,0-8.1-3.82-8.1-10.15c0-6.77,3.24-10.88,7.61-10.88c4.3,0,6.47,3.89,6.47,9.37c0,1.17-0.05,1.86-0.12,2.4H584.63z
				 M590.2,341.75c0.04-3.28-1.04-5.23-2.63-5.23c-1.95,0-2.82,2.83-2.91,5.23H590.2z"/>
			<path d="M597.62,339.27c0-2.31-0.1-3.95-0.17-5.76h3.88l0.23,2.41h0.08c0.97-1.64,2.69-2.74,4.84-2.74
				c3.41,0,5.22,2.65,5.22,7.39v13.4h-4.48v-12.97c0-2.04-0.43-4.04-2.39-4.04c-1.11,0-2.11,0.85-2.51,2.5
				c-0.13,0.45-0.23,1.11-0.23,1.86v12.65h-4.48V339.27z"/>
			<path d="M615.5,349.72c0.77,0.49,2.17,1.07,3.53,1.07c1.6,0,2.58-0.85,2.58-2.34c0-1.28-0.59-2.12-2.49-3.32
				c-3.04-1.81-4.15-3.78-4.15-5.86c0-3.52,2.57-6.11,6.25-6.11c1.66,0,2.94,0.47,3.92,1l-0.92,3.31c-0.78-0.49-1.7-0.87-2.8-0.87
				c-1.55,0-2.31,1.03-2.31,2.13c0,1.11,0.5,1.75,2.46,3c2.72,1.62,4.17,3.64,4.17,6.19c0,4.16-2.91,6.28-6.76,6.28
				c-1.61,0-3.47-0.46-4.38-1.18L615.5,349.72z"/>
			<path d="M632.34,344.94c0.05,4.57,2.17,5.81,4.56,5.81c1.49,0,2.76-0.34,3.67-0.73l0.64,3.23c-1.28,0.6-3.25,0.96-5.12,0.96
				c-5.27,0-8.1-3.82-8.1-10.15c0-6.77,3.24-10.88,7.61-10.88c4.3,0,6.47,3.89,6.47,9.37c0,1.17-0.05,1.86-0.12,2.4H632.34z
				 M637.91,341.75c0.04-3.28-1.04-5.23-2.63-5.23c-1.95,0-2.82,2.83-2.92,5.23H637.91z"/>
			<path d="M655.53,329.76h-5.08v-4.11h14.66v4.11h-5.1v24.2h-4.48V329.76z"/>
			<path d="M667.74,339.27c0-1.89-0.1-4.02-0.17-5.76h3.92l0.23,3.08h0.13c0.79-2.08,2.48-3.42,4.15-3.42
				c0.44,0,0.68,0.02,0.95,0.07v4.48c-0.28-0.05-0.57-0.05-0.96-0.05c-1.55,0-3.11,1.3-3.59,3.51c-0.11,0.49-0.19,1.18-0.19,1.96
				v10.81h-4.48V339.27z"/>
			<path d="M687.92,353.96l-0.26-2.08h-0.1c-1.02,1.58-2.54,2.42-4.33,2.42c-2.93,0-5.15-2.46-5.15-6.05c0-5.25,4.44-7.48,9.07-7.52
				v-0.54c0-2.13-0.83-3.63-3.06-3.63c-1.46,0-2.7,0.43-3.81,1.13l-0.86-3.06c1.01-0.64,3.16-1.46,5.65-1.46
				c5.26,0,6.61,3.6,6.61,7.96v8.17c0,1.59,0.05,3.3,0.26,4.66H687.92z M687.26,343.72c-1.75,0.02-4.91,0.51-4.91,4.07
				c0,2.31,1.23,3.14,2.22,3.14c1.12,0,2.21-0.76,2.58-2.34c0.08-0.32,0.11-0.69,0.11-1.04V343.72z"/>
			<path d="M706.59,353.54c-0.63,0.34-1.93,0.67-3.44,0.67c-4.86,0-8.08-3.59-8.08-10.32c0-6.12,3.39-10.67,8.81-10.67
				c1.21,0,2.38,0.29,2.94,0.59l-0.68,3.56c-0.44-0.18-1.18-0.46-2.17-0.46c-2.92,0-4.43,3.13-4.43,6.89c0,4.18,1.69,6.73,4.43,6.73
				c0.83,0,1.53-0.16,2.19-0.49L706.59,353.54z"/>
			<path d="M713.44,342.71h0.08c0.38-1.02,0.71-1.83,1.06-2.6l3.27-6.6h4.84l-5.16,8.58l5.52,11.87h-5l-3.59-8.95l-1.04,1.83v7.12
				h-4.46v-29.07h4.46V342.71z"/>
			<path d="M728.77,344.94c0.05,4.57,2.17,5.81,4.56,5.81c1.49,0,2.76-0.34,3.67-0.73l0.64,3.23c-1.28,0.6-3.25,0.96-5.12,0.96
				c-5.27,0-8.1-3.82-8.1-10.15c0-6.77,3.24-10.88,7.61-10.88c4.3,0,6.47,3.89,6.47,9.37c0,1.17-0.05,1.86-0.12,2.4H728.77z
				 M734.34,341.75c0.04-3.28-1.04-5.23-2.63-5.23c-1.95,0-2.82,2.83-2.92,5.23H734.34z"/>
			<path d="M741.74,339.27c0-1.89-0.1-4.02-0.17-5.76h3.92l0.23,3.08h0.13c0.79-2.08,2.48-3.42,4.15-3.42
				c0.44,0,0.68,0.02,0.95,0.07v4.48c-0.28-0.05-0.57-0.05-0.96-0.05c-1.55,0-3.11,1.3-3.59,3.51c-0.11,0.49-0.19,1.18-0.19,1.96
				v10.81h-4.48V339.27z"/>
		</g>
	</g>
</g>
</svg>
